<?xml version="1.0" encoding="UTF-8"?>
<svg width="32" height="32" viewBox="0 0 32 32" fill="none" xmlns="http://www.w3.org/2000/svg">
  <rect width="32" height="32" rx="4" fill="#007AFE"/>
  <path d="M14.2 24H11.848V9.6H14.824C16.152 9.6 17.304 9.864 18.28 10.392C19.272 10.92 20.032 11.68 20.56 12.672C21.104 13.648 21.376 14.824 21.376 16.2C21.376 17.576 21.104 18.76 20.56 19.752C20.032 20.744 19.268 21.504 18.268 22.032C17.284 22.544 15.864 24 14.2 24ZM14.176 22.176C15.248 22.176 16.152 21.976 16.888 21.576C17.624 21.16 18.176 20.544 18.544 19.728C18.912 18.912 19.096 17.92 19.096 16.752V15.648C19.096 14.464 18.904 13.464 18.52 12.648C18.152 11.816 17.6 11.192 16.864 10.776C16.128 10.36 15.224 10.152 14.152 10.152H14.176V22.176Z" fill="white"/>
</svg>